FFmpeg version SVN-r25716, Copyright (c) 2000-2010 the FFmpeg developers  built on Nov 10 2010 12:23:18 with gcc 4.1.2 20080704 (Red Hat 4.1.2-48)  configuration: --enable-libmp3lame --enable-shared --disable-mmx --arch=x86_64  libavutil     50.33. 0 / 50.33. 0  libavcore      0.12. 1 /  0.12. 1  libavcodec    52.94. 4 / 52.94. 4  libavformat   52.84. 0 / 52.84. 0  libavdevice   52. 2. 2 / 52. 2. 2  libavfilter    1.59. 0 /  1.59. 0  libswscale     0.12. 0 /  0.12. 0Input #0, mov,mp4,m4a,3gp,3g2,mj2, from '/RAID10/data/converted_video_files/36132.mov':  Duration: 00:00:25.00, start: 0.000000, bitrate: 252048 kb/s    Stream #0.0(eng): Video: rawvideo, rgb24, 890x1180, 252048 kb/s, 10 fps, 10 tbr, 10 tbn, 10 tbc[buffer @ 0x110a1d50] w:890 h:1180 pixfmt:rgb24[ffsink @ 0x110a8350] auto-inserting filter 'auto-inserted scaler 0' between the filter 'src' and the filter 'out'[scale @ 0x110c4320] w:890 h:1180 fmt:rgb24 -> w:890 h:1180 fmt:yuv420p flags:0x4Output #0, flv, to '/RAID10/data/converted_video_files/36132.flv':  Metadata:    encoder         : Lavf52.84.0    Stream #0.0(eng): Video: flv, yuv420p, 890x1180, q=2-31, 600 kb/s, 1k tbn, 24 tbcStream mapping:  Stream #0.0 -> #0.0Press [q] to stop encodingframe=    3 fps=  3 q=2.0 size=     145kB time=0.25 bitrate=4762.2kbits/s    frame=    8 fps=  5 q=5.1 size=     189kB time=0.75 bitrate=2062.2kbits/s    frame=   14 fps=  7 q=6.7 size=     265kB time=1.33 bitrate=1629.0kbits/s    frame=   23 fps=  9 q=6.9 size=     339kB time=2.25 bitrate=1233.6kbits/s    frame=   33 fps= 10 q=7.2 size=     409kB time=3.25 bitrate=1030.3kbits/s    frame=   41 fps= 11 q=6.3 size=     430kB time=4.04 bitrate= 870.8kbits/s    frame=   52 fps= 12 q=5.5 size=     490kB time=5.12 bitrate= 782.5kbits/s    frame=   62 fps= 13 q=5.4 size=     546kB time=6.12 bitrate= 730.5kbits/s    frame=   71 fps= 13 q=5.6 size=     602kB time=7.04 bitrate= 700.5kbits/s    frame=   79 fps= 14 q=5.5 size=     666kB time=7.83 bitrate= 697.0kbits/s    frame=   89 fps= 14 q=5.7 size=     703kB time=8.83 bitrate= 652.1kbits/s    frame=   97 fps= 14 q=5.0 size=     787kB time=9.62 bitrate= 669.4kbits/s    frame=  108 fps= 15 q=7.1 size=     866kB time=10.75 bitrate= 660.2kbits/s    frame=  117 fps= 15 q=7.1 size=     942kB time=11.62 bitrate= 664.1kbits/s    frame=  129 fps= 15 q=6.3 size=    1029kB time=12.83 bitrate= 656.6kbits/s    frame=  140 fps= 16 q=6.7 size=    1115kB time=13.96 bitrate= 654.2kbits/s    frame=  150 fps= 16 q=6.6 size=    1190kB time=14.96 bitrate= 651.8kbits/s    frame=  159 fps= 16 q=5.8 size=    1261kB time=15.83 bitrate= 652.2kbits/s    frame=  170 fps= 16 q=5.5 size=    1323kB time=16.96 bitrate= 639.1kbits/s    frame=  179 fps= 16 q=4.9 size=    1346kB time=17.83 bitrate= 618.4kbits/s    frame=  191 fps= 17 q=4.5 size=    1409kB time=19.04 bitrate= 606.4kbits/s    frame=  203 fps= 17 q=5.1 size=    1476kB time=20.25 bitrate= 597.0kbits/s    frame=  215 fps= 17 q=5.5 size=    1565kB time=21.46 bitrate= 597.4kbits/s    frame=  225 fps= 17 q=6.0 size=    1653kB time=22.46 bitrate= 603.0kbits/s    frame=  234 fps= 17 q=6.5 size=    1690kB time=23.33 bitrate= 593.2kbits/s    frame=  241 fps= 17 q=5.8 size=    1767kB time=24.04 bitrate= 602.1kbits/s    frame=  248 fps= 17 q=6.5 size=    1774kB time=24.75 bitrate= 587.2kbits/s    frame=  250 fps= 17 q=6.4 Lsize=    1774kB time=24.96 bitrate= 582.2kbits/s    video:1770kB audio:0kB global headers:0kB muxing overhead 0.232298%